<?xml version="1.0" standalone="no"?><!DOCTYPE svg PUBLIC "-//W3C//DTD SVG 1.1//EN" "http://www.w3.org/Graphics/SVG/1.1/DTD/svg11.dtd"><svg t="1602642949943" class="icon" viewBox="0 0 1256 1024" version="1.1" xmlns="http://www.w3.org/2000/svg" p-id="5571" xmlns:xlink="http://www.w3.org/1999/xlink" width="269.84375" height="220"><defs><style type="text/css"></style></defs><path d="M493.8838709375 41.56903249999999c92.1290325-12.975483749999999 168.216774375-12.5109675 252.44903250000002 0 57.630967500000004 12.201290624999999 116.03612906250001 21.7393546875 172.7070965625 37.4709675 41.961290625000004 11.6438709375 72.278709375 40.103225625 87.2670965625 83.5819359375 23.814193125 68.68645124999999 48.774193125000004 136.9703221875 75.0348384375 204.727741875 4.459354687499999 11.334193124999999 18.983225625 28.025806875 27.127741874999998 27.127741874999998 55.21548375-6.224516250000001 81.1974196875 24.46451625 98.0748384375 69.863225625 4.056774375 13.90451625 1.7961290625000002 27.84 0 37.0374196875-23.0090325 6.3793546875-46.0180640625 12.696774375-67.1690325 18.518709375 2.9729034375 23.9070965625 8.361290625 48.185806875 8.4851615625 72.46451625 0.9290324999999999 110.7406453125 1.6103221875 221.512258125-0.6193546875 332.2529034375-0.3716128125 19.757419687499997-11.798709375000001 50.5083871875-19.757419687499997 55.494193125-7.525161562500001 12.944516250000001-175.1225803125 12.3251615625-188.16 3.34451625-43.5406453125-28.27354875-16.75354875-75.71612906249999-30.72-114.2090325L339.20000000000005 869.2438709375c-11.024516250000001 40.7225803125-17.5896778125 109.09935468750001-30.8748384375 114.2090325-28.985806875 11.1483871875-184.3509675 11.5509675-193.0219359375 0-11.767741875-8.3303221875-19.757419687499997-41.8993546875-21.305806875-63.452903437500005-3.2206453125-46.6374196875-1.3625803125-93.64645125-0.8980640625-140.5006453125 0.8670965625-86.9883871875 2.167741875-173.976774375 3.31354875-261.55354875-16.32-4.27354875-39.545806875000004-10.436129062500001-62.77161281250001-16.598709375000002-1.2696778125-8.3303221875-2.9419359375000003-18.518709375 0-29.6361290625 16.134193125-47.938064062500004 39.731612812499996-84.94451624999999 100.2116128125-77.23354875 7.3083871875 0.9290324999999999 20.7793546875-14.678709375 24.774193125-25.145806874999998 20.655483750000002-54.131612812499995 42.8283871875-108.17032218749999 57.599999999999994-164.03612906249998 24.743225625-93.92516156250001 92.59354875-131.705806875 179.2103221875-148.36645125C428.04645125 50.70451624999998 461.08903250000003 46.61677437499998 493.8838709375 41.56903249999999L493.8838709375 41.56903249999999zM233.87870937499997 412.50064531249996c261.7083871875 54.1625803125 512.5470965625 55.432258125 769.8580640624999 0-21.61548375-66.58064531250001-43.2929034375-125.72903250000002-59.6129034375-186.24C930.06451625 174.29677437500004 896.43354875 148.7174196875 846.358709375 146.48774187500004c-122.04387093749999-5.481290625-244.11870937499998-9.847741875-366.19354875-10.776774375-40.1961290625-0.3096778125-80.9806453125 9.1974196875-120.43354875000001 18.6116128125-16.2580640625 3.9019359375000002-37.656774375 16.289032499999998-43.199999999999996 30.224516249999997C287.4219359375 257.29032218749995 262.585806875 331.8296778125 233.87870937499997 412.50064531249996L233.87870937499997 412.50064531249996zM284.1083871875 695.545806875C284.20129062499996 694.121290625 284.04645125 696.9393546875 284.1083871875 695.545806875c20.934193125 0 42.952258125-0.743225625 62.86451625000001-5.3883871875 14.4619359375-3.37548375 32.7948384375-15.112258124999999 37.3780640625-27.5303221875 3.2206453125-8.825806875-10.6529034375-31.463225625000003-22.1419359375-36.758709375-47.814193125-22.1729034375-96.9290325-42.270967500000005-147.0348384375-58.714838437500006-24.959999999999997-8.20645125-52.7690325-6.6580640625-60.8206453125 28.923870937500002-11.736774375 52.025806875-0.774193125 81.04258031250001 38.152258125 89.1561290625C222.4516128125 691.4580640625 253.51225812500002 692.3251615625 284.1083871875 695.545806875L284.1083871875 695.545806875zM962.24 695.3909675c27.0348384375-3.2516128125 60.54193593749999-4.459354687499999 92.62451625-11.9225803125 43.8503221875-10.06451625 34.590967500000005-47.0709675 33.5690325-78.4103221875-0.8670965625-26.8180640625-17.527741875-46.9780640625-41.6825803125-39.452903437500005-60.3870965625 18.73548375-120.34064531250002 40.81548375-177.16645125000002 68.376774375-26.105806875 12.696774375-16.75354875 47.6903221875 12.944516250000001 54.19354875C906.312258125 693.3470965625 931.3651615625 692.8516128125 962.24 695.3909675L962.24 695.3909675zM962.24 695.3909675" p-id="5572" fill="#01d48f"></path></svg>