<?xml version="1.0" standalone="no"?><!DOCTYPE svg PUBLIC "-//W3C//DTD SVG 1.1//EN" "http://www.w3.org/Graphics/SVG/1.1/DTD/svg11.dtd"><svg t="1602642993963" class="icon" viewBox="0 0 1024 1024" version="1.1" xmlns="http://www.w3.org/2000/svg" p-id="7799" xmlns:xlink="http://www.w3.org/1999/xlink" width="220" height="220"><defs><style type="text/css"></style></defs><path d="M993.216 1006.272s-7.488 19.2-23.04 17.6H91.52a26.88 26.88 0 0 1-27.2-26.88c-4.48-209.408 53.44-319.808 97.92-364.8 22.784-23.04 47.296-22.784 47.296-22.784 1.728-1.728 99.648-1.728 99.648-1.728 15.36-0.128 27.968 22.272 27.968 37.12v2.176c0 14.08-13.44 34.304-27.968 34.176h-73.536c-105.6 22.912-100.032 302.976-97.92 269.312-0.32 4.928-5.12 0 0 0h783.488c1.92 0 2.56 2.048 2.56 0.192-0.96-24-52.352-270.4-124.992-269.504h-73.408c-13.76 0-23.68-21.12-23.68-34.496 0-16 7.168-39.04 23.68-39.04h73.408c41.6 0 66.688 20.16 68.608 22.08 60.608 61.12 140.864 242.752 125.824 376.576zM526.4 927.552L474.24 889.6a17.088 17.088 0 0 1-6.656-18.112l43.968-171.008a3.456 3.456 0 0 0-0.384-2.56l-16.512-26.24a3.264 3.264 0 0 1-0.512-1.92l1.216-24.896a3.52 3.52 0 0 1 3.328-3.2 538.88 538.88 0 0 1 71.68 0c1.856 0 3.264 1.408 3.392 3.2l1.28 24.832c0 0.704-0.192 1.408-0.576 1.92l-16.512 26.24a3.328 3.328 0 0 0-0.384 2.688l49.664 170.624a17.024 17.024 0 0 1-6.464 18.56l-51.968 37.76a19.072 19.072 0 0 1-22.336 0z m222.208-516.928c-18.688 62.528-44.16 109.312-78.4 144-36.8 37.376-83.008 52.48-140.928 64.32a27.648 27.648 0 0 1-9.344 0.192c-52.288-8.448-98.432-22.72-136.832-60.544-35.008-34.368-62.976-82.048-82.56-145.472a3.84 3.84 0 0 0-1.792-2.112c-15.744-8.64-27.648-22.784-35.776-41.472-9.152-21.12-27.84-47.424-27.328-80.128 0.256-15.744 25.6-21.12 25.6-21.12-6.912-28.352-17.664-217.984 60.16-244.224 0.256 0 0.32-0.192 0.512-0.32 49.024-34.24 134.4-16.64 213.76-22.144 229.184-16.192 262.016 92.672 238.656 263.296-0.192 1.024 7.68 1.152 8.576 1.728a61.44 61.44 0 0 1 2.56 1.6l0.96 0.64c6.272 4.032 12.224 13.248 12.352 20.48l-2.176-1.408c0.512 32.128-3.52 59.2-12.288 80.256-8 19.2-19.84 33.6-35.712 42.432z m-47.744-96.768l5.76-33.408c-3.2-38.784-0.896-115.2-17.984-115.648-27.52-0.832-38.656-8.512-59.136-14.72l-7.744 23.36c-3.2 9.6-19.776-9.984-23.04-4.864 0 0-27.008 18.752-22.4 6.72 0 0 17.28-36.992 4.48-29.44-76.8 45.248-196.864 44.288-222.848 24.128-47.488-36.736-20.992 132.48-20.992 132.48-1.92 7.04 9.472 1.344-32.128 8a3.52 3.52 0 0 0-3.008 3.712c1.344 14.464 4.032 26.752 8.32 36.48 4.48 10.624 10.816 17.472 18.688 19.84l29.248-7.68c4.736 7.04 18.88 51.136 17.6 52.736 20.16 62.016 25.024 63.488 55.872 94.208 28.8 28.672 58.432 41.664 97.92 48.96 0.512 0.064-0.512 0.128 0 0 44.928-9.984 70.016-20.16 97.92-48.96 54.208-56.064 71.872-138.752 73.472-146.944l17.792 7.296c7.744-2.56 13.888-9.6 18.368-20.16 3.968-9.472 6.592-21.248 7.936-35.072a3.456 3.456 0 0 0-3.648-3.712 200.32 200.32 0 0 0-19.712 1.28l-20.736 1.408z" p-id="7800" fill="#ff7979"></path></svg>