<?xml version="1.0" standalone="no"?><!DOCTYPE svg PUBLIC "-//W3C//DTD SVG 1.1//EN" "http://www.w3.org/Graphics/SVG/1.1/DTD/svg11.dtd"><svg t="1602571388491" class="icon" viewBox="0 0 1026 1024" version="1.1" xmlns="http://www.w3.org/2000/svg" p-id="4759" xmlns:xlink="http://www.w3.org/1999/xlink" width="220.4296875" height="220"><defs><style type="text/css"></style></defs><path d="M787.443 1022.678c15.145 0 27.406-13.222 27.886-30.17l0.24-10.579h0.482c0.36-7.693 0.6-14.424 0.6-20.915 0-181.865-100.849-342.816-256.99-410.129l-17.55-7.572 15.506-11.18c74.765-54.09 119.36-144.482 119.36-241.605C676.977 130.298 556.775 0 408.927 0s-268.05 130.299-268.05 290.528c0 97.123 44.595 187.515 119.36 241.606l15.506 11.179-17.55 7.572C102.173 618.32 1.324 779.27 1.324 961.015c0 6.49 0.24 13.101 0.6 20.914h0.721l0.12 10.819c0 17.188 12.622 31.132 28.008 31.132 15.506 0.12 741.405-1.202 756.67-1.202m-68.875-453.041c70.198 8.414 133.664 44.715 179.221 102.532 45.316 57.577 70.318 133.184 70.318 212.878 0 17.55 12.862 31.733 28.608 31.733 15.266 0 27.767-13.343 28.368-30.411l0.12-0.962c0-0.12 0-0.36 0.12-0.48-0.24-151.335-84.141-285.12-213.96-341.013l-17.549-7.573 15.506-11.179c62.145-44.835 99.287-119.841 99.287-200.617 0-111.788-69.597-207.709-169.485-234.033l-0.6 0.24-2.765-0.24c-0.601 0-1.202-0.12-1.803-0.24-0.24 0-0.481-0.12-0.721-0.12-15.987 0-28.97 14.544-28.97 32.214 0 15.986 10.338 29.329 24.642 31.733l1.323 0.24 1.202 0.481c1.442 0.601 3.485 1.322 6.13 2.043 0.6 0.12 0.961 0.24 1.202 0.361 65.63 24.04 109.744 90.392 109.744 164.917 0 83.3-54.812 154.82-130.539 170.927l-1.202 0.721-2.524 0.12c-17.91 1.203-31.974 17.67-31.974 37.383 0 20.194 14.424 36.662 32.815 37.503l2.404 0.12 1.082 0.722m0 0" p-id="4760" fill="#ff9831"></path></svg>