<?xml version="1.0" standalone="no"?><!DOCTYPE svg PUBLIC "-//W3C//DTD SVG 1.1//EN" "http://www.w3.org/Graphics/SVG/1.1/DTD/svg11.dtd"><svg t="1602643019031" class="icon" viewBox="0 0 1024 1024" version="1.1" xmlns="http://www.w3.org/2000/svg" p-id="8676" xmlns:xlink="http://www.w3.org/1999/xlink" width="220" height="220"><defs><style type="text/css"></style></defs><path d="M512 325.7c-23.1 0-44.7-5.9-65-17.8-20.3-11.9-36.3-27.9-48.2-48.1-11.9-20.2-17.8-41.9-17.8-64.9 0-23 5.9-44.7 17.8-64.9 11.9-20.2 27.9-36.3 48.2-48.2C467.3 69.9 488.9 64 512 64s44.7 5.9 65 17.8c20.3 11.9 36.3 27.9 48.2 48.2 11.9 20.2 17.8 41.9 17.8 64.9 0 23-5.9 44.7-17.8 64.9-11.9 20.2-27.9 36.3-48.2 48.1-20.3 11.9-41.9 17.8-65 17.8z m-13.3 141c7.6 6.6 18.9 6.6 26.6 0 49.1-42.5 104.1-75.9 164.9-100.2 62.6-24.6 127.2-38.1 193.9-40.5 11.5-0.4 21 8.8 21 20.2V784c0 10.9-8.6 19.9-19.5 20.2-67.1 2.2-132.3 16.1-195.3 41.5-60.8 24.9-115.7 58.9-164.8 102-7.7 6.7-19.1 6.7-26.8 0-49.1-43.1-104-77.1-164.8-102-62.5-25.5-127.6-39.3-195.3-41.5-10.9-0.4-19.5-9.3-19.5-20.2V346.3c0-11.5 9.5-20.6 21-20.2 67.2 2.3 131.8 15.8 193.9 40.5 60.7 24.2 115.6 57.6 164.7 100.1z" p-id="8677" fill="#ff9831"></path></svg>