<?xml version="1.0" standalone="no"?><!DOCTYPE svg PUBLIC "-//W3C//DTD SVG 1.1//EN" "http://www.w3.org/Graphics/SVG/1.1/DTD/svg11.dtd"><svg t="1611307098958" class="icon" viewBox="0 0 1024 1024" version="1.1" xmlns="http://www.w3.org/2000/svg" p-id="803" xmlns:xlink="http://www.w3.org/1999/xlink" width="220" height="220"><defs><style type="text/css"></style></defs><path d="M156.90060904 16.1652938h710.35391982a64.7668216 64.7668216 0 0 1 64.57762872 64.57762872v839.50917855a64.7668216 64.7668216 0 0 1-64.57762872 64.57762873H156.90060904A64.7668216 64.7668216 0 0 1 92.32298032 920.25210107V80.74292252A64.7668216 64.7668216 0 0 1 156.90060904 16.1652938z m0 0" fill="#D93C21" p-id="804"></path><path d="M156.90060904 48.45410881h710.35391982a64.7668216 64.7668216 0 0 1 64.57762872 64.57762872v290.59933118L754.24367827 471.48802955c-158.21519108 61.34874734-329.34590765 61.34874734-487.56110001 0L92.32298032 403.63106871V113.03173753a64.7668216 64.7668216 0 0 1 64.57762872-64.57762872z m0 0" fill="#CC371D" p-id="805"></path><path d="M156.90060904 16.1652938h710.35391982a64.7668216 64.7668216 0 0 1 64.57762872 64.57762872v290.59933119l-177.58847931 67.80651009c-158.21519108 61.34874734-329.34590765 61.34874734-487.56110001 0L92.32298032 371.34225371V80.74292252A64.7668216 64.7668216 0 0 1 156.90060904 16.1652938z m0 0" fill="#E62200" p-id="806"></path><path d="M318.34468149 500.49751115a193.73288746 193.73288746 0 1 0 193.73288747-193.73288615A193.73288746 193.73288746 0 0 0 318.34468149 500.49751115z m0 0" fill="#FFD96B" p-id="807"></path><path d="M512.07756896 661.9415849c-90.40868098 0-161.44407245-71.03539147-161.44407246-161.44407375s71.03539147-161.44407245 161.44407246-161.44407245 161.44407245 71.03539147 161.44407244 161.44407245-71.03539147 161.44407245-161.44407244 161.44407375z m0-306.74373804A145.29966559 145.29966559 0 1 0 657.37723455 500.49751115a144.69425018 144.69425018 0 0 0-145.29966559-145.29966429z m0 0" fill="#FDC223" p-id="808"></path><path d="M460.4154657 536.01520754v-22.60216961h38.74657775V500.49751115h-38.74657775v-22.6021696h25.83105227l-32.288815-61.34874735h32.288815l22.60216961 41.97545912c3.22888138 6.45776274 3.22888138 9.68664411 6.45776273 12.91552549 0-3.22888138 3.22888138-9.68664411 6.45776275-12.91552549l22.60217089-41.97545912H576.65519767l-32.28881372 61.34874735h29.0094816V500.49751115h-38.6961257v12.91552678h38.74657645v22.60216961h-38.74657645V581.21954803h-29.00948289v-45.20434049z m0 0" fill="#FF790D" p-id="809"></path></svg>